<svg xmlns="http://www.w3.org/2000/svg" width="33.077" height="33" viewBox="0 0 33.077 33">
  <g id="Group_3" data-name="Group 3" transform="translate(-884 -524)">
    <path id="Path_2" data-name="Path 2" d="M33,33H0V0H33V33Z" transform="translate(884 524)" fill="#fff"/>
    <path id="Path_3" data-name="Path 3" d="M31.721,23.713H20.611l-.613-.8v.8H17.451v-1.5a3.287,3.287,0,0,1-1.211.219H16.1v1.283H12.489l-.569-.8-.555.8H5.535V17.968h5.853l.56.784.563-.784H33V0H0V12.919l1.129-2.637H3.482L4,11.489V10.282H6.911l.369,1.044.362-1.044H20.131v.462a2.97,2.97,0,0,1,1.674-.462H25.67l.523,1.207V10.282h2.373l.551.9v-.9h2.577v5.744H29.258l-.517-.845v.845H25.184l-.33-.845h-.693l-.323.845H21.743a2.946,2.946,0,0,1-1.612-.425v.425H16.554l-.612-.794v.794H2.993l-.329-.845H1.971l-.323.845H0V33H33V23.371a2.423,2.423,0,0,1-1.278.342" transform="translate(884 524)" fill="#0072bb"/>
    <path id="Path_4" data-name="Path 4" d="M31.743,22H29.718v.829h1.993a1.234,1.234,0,0,0,1.366-1.26,1.092,1.092,0,0,0-1.236-1.135h-.9a.372.372,0,0,1-.4-.381.366.366,0,0,1,.4-.369h1.7l.369-.829H30.972A1.234,1.234,0,0,0,29.6,20.091a1.1,1.1,0,0,0,1.238,1.153h.9a.378.378,0,1,1,0,.754m-3.655,0H26.061v.829h1.992a1.236,1.236,0,0,0,1.37-1.26,1.092,1.092,0,0,0-1.238-1.135h-.9a.371.371,0,0,1-.4-.381.365.365,0,0,1,.4-.369h1.7l.369-.829H27.315a1.233,1.233,0,0,0-1.366,1.238,1.1,1.1,0,0,0,1.236,1.153h.9a.378.378,0,1,1,0,.754m-2.554-2.327v-.818H22.372v3.974h3.162v-.805H23.308v-.79h2.175v-.8H23.308v-.761Zm-5.138.011a.458.458,0,1,1,0,.909H19.272v-.909Zm-1.124,1.686h.444l1.209,1.459h1.168l-1.31-1.493A1.214,1.214,0,0,0,21.85,20.1a1.237,1.237,0,0,0-1.369-1.25H18.336v3.974h.936Zm-2.4-1.181a.469.469,0,0,1-.512.494H15.209v-1H16.36a.473.473,0,0,1,.512.505m-2.6-1.334v3.974h.938V21.51h1.2a1.3,1.3,0,0,0,1.4-1.328,1.267,1.267,0,0,0-1.369-1.329Zm-1.357,3.974h1.17l-1.6-2,1.589-1.97H12.938l-.988,1.289-.983-1.289H9.8l1.6,1.988L9.8,22.827h1.135l.987-1.3ZM9.622,19.671v-.818H6.46v3.974H9.622v-.805H7.4v-.79H9.571v-.8H7.4v-.761Z" transform="translate(884 524)" fill="#0072bb"/>
    <path id="Path_5" data-name="Path 5" d="M27.885,12.934l-.03-.665.381.646,1.4,2.226h1.084V11.167h-.886V13.28l.028.669-.388-.658-1.345-2.124H26.987v3.974h.9Zm-3.746-.325.289-.778.3.778.392.966H23.753Zm1.607,2.532h1.042l-1.7-3.974H23.854l-1.7,3.974h.969l.336-.84h1.948Zm-4.132,0h.045l.385-.834H21.76a.99.99,0,0,1-1.044-1.123v-.058a1,1,0,0,1,1.034-1.119h1.021v-.84h-1.1a1.794,1.794,0,0,0-1.894,1.947v.08a1.768,1.768,0,0,0,1.834,1.947m-3.35,0H19.2V11.167h-.935v3.974ZM16.288,12a.457.457,0,1,1,0,.908H15.163V12Zm-1.125,1.685h.446l1.207,1.459h1.17l-1.312-1.492a1.215,1.215,0,0,0,1.067-1.233,1.236,1.236,0,0,0-1.369-1.249H14.227v3.974h.936Zm-1.594-1.7v-.818H10.408v3.974h3.161v-.8H11.344v-.79h2.175v-.8H11.344v-.76Zm-7.846.551-.034-.914.291.914.835,2.6h.866l.84-2.6.292-.921-.033.921-.014,2.6h.882V11.167H8.172l-.677,2.084-.242.892-.244-.892-.677-2.084H4.848v3.974h.887ZM2,12.609l.289-.778.3.778.393.966H1.616Zm1.608,2.532H4.652l-1.7-3.974H1.718L.013,15.141H.985l.334-.84H3.266Z" transform="translate(884 524)" fill="#0072bb"/>
  </g>
</svg>
