<svg xmlns="http://www.w3.org/2000/svg" width="16.633" height="16.633" viewBox="0 0 16.633 16.633">
  <path id="instagram" d="M11.089,8.317A2.773,2.773,0,0,0,8.317,5.544,2.773,2.773,0,0,0,5.544,8.317a2.773,2.773,0,0,0,2.772,2.772,2.773,2.773,0,0,0,2.772-2.772Zm1.494,0a4.251,4.251,0,0,1-4.266,4.266A4.251,4.251,0,0,1,4.05,8.317,4.251,4.251,0,0,1,8.317,4.05a4.251,4.251,0,0,1,4.266,4.266Zm1.169-4.44a1,1,0,1,1-1.7-.7,1,1,0,0,1,1.7.7ZM8.317,1.494l-.828-.006q-.753-.006-1.143,0T5.3,1.521a8.54,8.54,0,0,0-1.115.108,4.3,4.3,0,0,0-.774.2A2.832,2.832,0,0,0,1.83,3.411a4.346,4.346,0,0,0-.2.774A8.54,8.54,0,0,0,1.521,5.3q-.027.655-.032,1.045t0,1.143q.006.753.006.828t-.006.828q-.006.753,0,1.143t.032,1.045a8.54,8.54,0,0,0,.108,1.115,4.32,4.32,0,0,0,.2.773A2.832,2.832,0,0,0,3.411,14.8a4.345,4.345,0,0,0,.774.2,8.54,8.54,0,0,0,1.115.108q.655.027,1.045.032t1.143,0l.828-.006.828.006q.753.006,1.143,0t1.045-.032A8.539,8.539,0,0,0,12.449,15a4.346,4.346,0,0,0,.774-.2A2.832,2.832,0,0,0,14.8,13.222a4.345,4.345,0,0,0,.2-.774,8.54,8.54,0,0,0,.108-1.115q.027-.655.032-1.045t0-1.143q-.006-.753-.006-.828t.006-.828q.006-.753,0-1.143T15.113,5.3A8.539,8.539,0,0,0,15,4.185a4.262,4.262,0,0,0-.2-.773A2.832,2.832,0,0,0,13.222,1.83a4.346,4.346,0,0,0-.774-.2,8.54,8.54,0,0,0-1.115-.108q-.655-.027-1.045-.032t-1.143,0l-.828.006Zm8.317,6.822q0,2.48-.054,3.433a5.079,5.079,0,0,1-1.343,3.487,5.079,5.079,0,0,1-3.487,1.343q-.953.054-3.433.054t-3.433-.054A5.079,5.079,0,0,1,1.4,15.236,5.079,5.079,0,0,1,.054,11.75Q0,10.8,0,8.317T.054,4.884A5.079,5.079,0,0,1,1.4,1.4,5.079,5.079,0,0,1,4.884.054Q5.837,0,8.317,0T11.75.054A5.079,5.079,0,0,1,15.236,1.4a5.079,5.079,0,0,1,1.343,3.487Q16.633,5.837,16.633,8.317Z" fill="#221f1f"/>
</svg>
