<svg xmlns="http://www.w3.org/2000/svg" width="43.753" height="27.247" viewBox="0 0 43.753 27.247">
  <g id="Group_1" data-name="Group 1" transform="translate(-993.18 -527.563)">
    <rect id="Rectangle_2" data-name="Rectangle 2" width="43.753" height="3.923" transform="translate(993.18 550.887)" fill="#fab400"/>
    <rect id="Rectangle_3" data-name="Rectangle 3" width="43.753" height="3.924" transform="translate(993.18 527.563)" fill="#1c2f76"/>
    <path id="Path_1" data-name="Path 1" d="M126.695,11.807l-4.521,10.781h-2.948L117,13.985a1.185,1.185,0,0,0-.663-.949,11.788,11.788,0,0,0-2.753-.917l.067-.312H118.4a1.3,1.3,0,0,1,1.287,1.1l1.176,6.243,2.9-7.34Zm11.551,7.262c.013-2.844-3.936-3.005-3.908-4.274.009-.387.378-.8,1.184-.9a5.259,5.259,0,0,1,2.751.482l.489-2.287a7.526,7.526,0,0,0-2.609-.477c-2.758,0-4.7,1.465-4.713,3.563-.019,1.553,1.385,2.418,2.439,2.936,1.088.528,1.453.868,1.448,1.339-.008.724-.868,1.044-1.667,1.056a5.82,5.82,0,0,1-2.865-.682l-.506,2.363a8.421,8.421,0,0,0,3.1.573c2.932,0,4.848-1.446,4.857-3.689m7.282,3.519h2.578l-2.251-10.781h-2.381a1.266,1.266,0,0,0-1.188.791l-4.186,9.99h2.93l.582-1.609h3.578Zm-3.114-3.818,1.47-4.049.841,4.049Zm-11.735-6.963-2.3,10.781h-2.792l2.307-10.781Z" transform="translate(884 524)" fill="#1c2f76"/>
  </g>
</svg>
